<svg width="68" height="20" viewBox="0 0 68 20" fill="none" xmlns="http://www.w3.org/2000/svg">
<path d="M11.5065 0.949393V8.35014H3.77052V0.949393H0.805061V19H3.77052V11.1867H11.5065V19H14.4719V0.949393H11.5065ZM23.9852 19.3352C27.7758 19.3352 30.7928 16.3698 30.7928 12.5534C30.7928 8.71115 27.7758 5.77148 23.9852 5.77148C20.2203 5.77148 17.1775 8.71115 17.1775 12.5534C17.1775 16.3698 20.2203 19.3352 23.9852 19.3352ZM23.9852 16.6276C21.716 16.6276 19.9625 14.8999 19.9625 12.5534C19.9625 10.2068 21.716 8.47908 23.9852 8.47908C26.2544 8.47908 28.0079 10.2068 28.0079 12.5534C28.0079 14.8999 26.2544 16.6276 23.9852 16.6276ZM47.3905 5.77148C45.6628 5.77148 44.2961 6.46772 43.4452 7.80862C42.6974 6.51929 41.4596 5.77148 39.7835 5.77148C38.1847 5.77148 36.9212 6.39036 36.096 7.6539V6.10671H33.3111V19H36.096V11.7798C36.096 9.43318 37.3853 8.37593 38.9583 8.37593C40.4797 8.37593 41.3823 9.38161 41.3823 11.1867V19H44.1672V11.7798C44.1672 9.43318 45.3276 8.37593 46.9779 8.37593C48.4994 8.37593 49.4792 9.38161 49.4792 11.1867V19H52.2642V11.0062C52.2642 7.78284 50.3044 5.77148 47.3905 5.77148ZM57.4366 13.7395H67.6997C67.7513 13.3785 67.8028 12.9659 67.8028 12.5791C67.8028 8.86587 65.1726 5.77148 61.3304 5.77148C57.2819 5.77148 54.5227 8.73694 54.5227 12.5534C54.5227 16.4213 57.2819 19.3352 61.5367 19.3352C64.0638 19.3352 65.9978 18.278 67.1839 16.5245L64.8889 15.1836C64.2701 16.0861 63.1097 16.7824 61.5625 16.7824C59.4995 16.7824 57.875 15.7509 57.4366 13.7395ZM57.4108 11.4703C57.7976 9.53633 59.2159 8.29857 61.3046 8.29857C62.9807 8.29857 64.6053 9.25267 64.9921 11.4703H57.4108Z" fill="white"/>
</svg>
